<svg width="64" height="64" viewBox="0 0 64 64" fill="none" xmlns="http://www.w3.org/2000/svg">
  <rect width="64" height="64" rx="16" fill="#6366F1"/>
  <path d="M20 24C20 22.8954 20.8954 22 22 22H26C27.1046 22 28 22.8954 28 24V40C28 41.1046 27.1046 42 26 42H22C20.8954 42 20 41.1046 20 40V24Z" fill="white"/>
  <path d="M32 18C32 16.8954 32.8954 16 34 16H38C39.1046 16 40 16.8954 40 18V46C40 47.1046 39.1046 48 38 48H34C32.8954 48 32 47.1046 32 46V18Z" fill="white"/>
  <path d="M44 28C44 26.8954 44.8954 26 46 26H50C51.1046 26 52 26.8954 52 28V36C52 37.1046 51.1046 38 50 38H46C44.8954 38 44 37.1046 44 36V28Z" fill="white"/>
  <circle cx="16" cy="32" r="4" fill="white"/>
</svg>